<svg width="9" height="6" viewBox="0 0 9 6" fill="none" xmlns="http://www.w3.org/2000/svg">
<path d="M3.95058 0.935797L0.156977 4.82578C0.104651 4.87944 0.065407 4.93756 0.0392442 5.00016C0.0130814 5.06276 0 5.12983 0 5.20137C0 5.34445 0.0479651 5.46964 0.143895 5.57695C0.239826 5.68426 0.366279 5.73792 0.523256 5.73792H8.47674C8.63372 5.73792 8.76017 5.68426 8.8561 5.57695C8.95203 5.46964 9 5.34445 9 5.20137C9 5.1656 8.94767 5.0404 8.84302 4.82578L5.04942 0.935797C4.96221 0.846372 4.875 0.783774 4.78779 0.748004C4.70058 0.712234 4.60465 0.694349 4.5 0.694349C4.39535 0.694349 4.29942 0.712234 4.21221 0.748004C4.125 0.783774 4.03779 0.846372 3.95058 0.935797Z" fill="#121212"/>
</svg>
